<mxfile host="app.diagrams.net" modified="2024-03-12T10:47:11.966Z" agent="Mozilla/5.0 (Windows NT 10.0; Win64; x64) AppleWebKit/537.36 (KHTML, like Gecko) Chrome/122.0.0.0 Safari/537.36" etag="xMybaV1V4E88ibHz3sj8" version="24.0.4" type="device">
  <diagram name="หน้า-1" id="TkGlzdMm7sgDq_rXZbFi">
    <mxGraphModel dx="472" dy="736" grid="1" gridSize="10" guides="1" tooltips="1" connect="1" arrows="1" fold="1" page="1" pageScale="1" pageWidth="827" pageHeight="1169" math="0" shadow="0">
      <root>
        <mxCell id="0" />
        <mxCell id="1" parent="0" />
        <mxCell id="h4A4DJFyEhcsKV__63Zm-1" value="&lt;font style=&quot;font-size: 21px;&quot;&gt;&lt;b&gt;Start&lt;/b&gt;&lt;/font&gt;" style="strokeWidth=2;html=1;shape=mxgraph.flowchart.terminator;whiteSpace=wrap;" vertex="1" parent="1">
          <mxGeometry x="284" y="80" width="260" height="120" as="geometry" />
        </mxCell>
        <mxCell id="h4A4DJFyEhcsKV__63Zm-6" style="edgeStyle=orthogonalEdgeStyle;rounded=0;orthogonalLoop=1;jettySize=auto;html=1;entryX=0.5;entryY=0;entryDx=0;entryDy=0;" edge="1" parent="1" source="h4A4DJFyEhcsKV__63Zm-2" target="h4A4DJFyEhcsKV__63Zm-5">
          <mxGeometry relative="1" as="geometry" />
        </mxCell>
        <mxCell id="h4A4DJFyEhcsKV__63Zm-2" value="&lt;font style=&quot;font-size: 16px;&quot;&gt;print&amp;nbsp;&lt;/font&gt;&lt;div&gt;&lt;span style=&quot;font-family: Consolas, &amp;quot;Courier New&amp;quot;, monospace; white-space: pre;&quot;&gt;&lt;font style=&quot;font-size: 16px;&quot;&gt;&quot;&lt;/font&gt;&lt;/span&gt;&lt;span style=&quot;font-family: Consolas, &amp;quot;Courier New&amp;quot;, monospace; font-size: 14px; white-space: pre;&quot;&gt;คำนวณพื้นที่ของรูปสี่เหลี่ยมคางหมู&lt;/span&gt;&lt;span style=&quot;font-family: Consolas, &amp;quot;Courier New&amp;quot;, monospace; font-size: 16px; white-space: pre;&quot;&gt;&quot;&lt;/span&gt;&lt;br&gt;&lt;/div&gt;" style="strokeWidth=2;html=1;shape=mxgraph.flowchart.display;whiteSpace=wrap;" vertex="1" parent="1">
          <mxGeometry x="284" y="240" width="260" height="120" as="geometry" />
        </mxCell>
        <mxCell id="h4A4DJFyEhcsKV__63Zm-3" style="edgeStyle=orthogonalEdgeStyle;rounded=0;orthogonalLoop=1;jettySize=auto;html=1;entryX=0.5;entryY=0;entryDx=0;entryDy=0;entryPerimeter=0;" edge="1" parent="1" source="h4A4DJFyEhcsKV__63Zm-1" target="h4A4DJFyEhcsKV__63Zm-2">
          <mxGeometry relative="1" as="geometry" />
        </mxCell>
        <mxCell id="h4A4DJFyEhcsKV__63Zm-8" value="" style="edgeStyle=orthogonalEdgeStyle;rounded=0;orthogonalLoop=1;jettySize=auto;html=1;" edge="1" parent="1" source="h4A4DJFyEhcsKV__63Zm-5" target="h4A4DJFyEhcsKV__63Zm-7">
          <mxGeometry relative="1" as="geometry" />
        </mxCell>
        <mxCell id="h4A4DJFyEhcsKV__63Zm-5" value="&lt;div style=&quot;font-size: 16px;&quot;&gt;&lt;div style=&quot;font-family: Consolas, &amp;quot;Courier New&amp;quot;, monospace; font-size: 14px; line-height: 19px; white-space: pre;&quot;&gt;&lt;div style=&quot;line-height: 19px;&quot;&gt;&lt;div style=&quot;line-height: 19px;&quot;&gt;&lt;div style=&quot;line-height: 19px;&quot;&gt;&lt;span style=&quot;background-color: rgb(255, 255, 255);&quot;&gt;alas1,alas2,tinggi&lt;/span&gt;&lt;/div&gt;&lt;/div&gt;&lt;/div&gt;&lt;/div&gt;&lt;/div&gt;" style="html=1;strokeWidth=2;shape=manualInput;whiteSpace=wrap;rounded=1;size=26;arcSize=11;" vertex="1" parent="1">
          <mxGeometry x="284" y="400" width="260" height="120" as="geometry" />
        </mxCell>
        <mxCell id="h4A4DJFyEhcsKV__63Zm-10" value="" style="edgeStyle=orthogonalEdgeStyle;rounded=0;orthogonalLoop=1;jettySize=auto;html=1;" edge="1" parent="1" source="h4A4DJFyEhcsKV__63Zm-7" target="h4A4DJFyEhcsKV__63Zm-9">
          <mxGeometry relative="1" as="geometry" />
        </mxCell>
        <mxCell id="h4A4DJFyEhcsKV__63Zm-7" value="&lt;div style=&quot;font-family: Consolas, &amp;quot;Courier New&amp;quot;, monospace; font-size: 16px; line-height: 19px; white-space: pre;&quot;&gt;&lt;div style=&quot;font-size: 14px; line-height: 19px;&quot;&gt;&lt;div style=&quot;&quot;&gt;&lt;div style=&quot;line-height: 19px;&quot;&gt;&lt;div style=&quot;&quot;&gt;&lt;div style=&quot;line-height: 19px;&quot;&gt;&lt;div style=&quot;line-height: 19px;&quot;&gt;&lt;div style=&quot;&quot;&gt;&amp;nbsp; area = ((alas1 + alas2) * tinggi) / 2&lt;/div&gt;&lt;/div&gt;&lt;/div&gt;&lt;/div&gt;&lt;/div&gt;&lt;/div&gt;&lt;/div&gt;&lt;/div&gt;" style="rounded=1;whiteSpace=wrap;html=1;strokeWidth=2;arcSize=11;" vertex="1" parent="1">
          <mxGeometry x="229" y="560" width="370" height="120" as="geometry" />
        </mxCell>
        <mxCell id="h4A4DJFyEhcsKV__63Zm-12" value="" style="edgeStyle=orthogonalEdgeStyle;rounded=0;orthogonalLoop=1;jettySize=auto;html=1;" edge="1" parent="1" source="h4A4DJFyEhcsKV__63Zm-9" target="h4A4DJFyEhcsKV__63Zm-11">
          <mxGeometry relative="1" as="geometry" />
        </mxCell>
        <mxCell id="h4A4DJFyEhcsKV__63Zm-9" value="&lt;font style=&quot;font-size: 16px;&quot;&gt;print&amp;nbsp;&lt;/font&gt;&lt;div&gt;&lt;div style=&quot;font-family: Consolas, &amp;quot;Courier New&amp;quot;, monospace; font-size: 14px; line-height: 19px; white-space: pre;&quot;&gt;&quot; &amp;nbsp;พื้นที่ของรูปสี่เหลี่ยมคางหมู =&quot;, area,&lt;br&gt;&lt;/div&gt;&lt;div style=&quot;font-family: Consolas, &amp;quot;Courier New&amp;quot;, monospace; font-size: 14px; line-height: 19px; white-space: pre;&quot;&gt;&quot;-------------------------&quot; &lt;/div&gt;&lt;/div&gt;" style="strokeWidth=2;html=1;shape=mxgraph.flowchart.display;whiteSpace=wrap;" vertex="1" parent="1">
          <mxGeometry x="284" y="720" width="260" height="120" as="geometry" />
        </mxCell>
        <mxCell id="h4A4DJFyEhcsKV__63Zm-11" value="&lt;font style=&quot;font-size: 21px;&quot;&gt;&lt;b&gt;Stop&lt;/b&gt;&lt;/font&gt;" style="strokeWidth=2;html=1;shape=mxgraph.flowchart.terminator;whiteSpace=wrap;" vertex="1" parent="1">
          <mxGeometry x="284" y="880" width="260" height="120" as="geometry" />
        </mxCell>
      </root>
    </mxGraphModel>
  </diagram>
</mxfile>
